<?xml version="1.0" encoding="UTF-8" standalone="no"?>
<!-- Created with Inkscape (http://www.inkscape.org/) -->

<svg
   xmlns:dc="http://purl.org/dc/elements/1.1/"
   xmlns:cc="http://creativecommons.org/ns#"
   xmlns:rdf="http://www.w3.org/1999/02/22-rdf-syntax-ns#"
   xmlns:svg="http://www.w3.org/2000/svg"
   xmlns="http://www.w3.org/2000/svg"
   xmlns:sodipodi="http://sodipodi.sourceforge.net/DTD/sodipodi-0.dtd"
   xmlns:inkscape="http://www.inkscape.org/namespaces/inkscape"
   width="1024"
   height="768"
   id="svg2"
   version="1.1"
   inkscape:version="0.48.3.1 r9886"
   sodipodi:docname="track.svg"
   inkscape:export-filename="track.png"
   inkscape:export-xdpi="75"
   inkscape:export-ydpi="75">
  <defs
     id="defs4" />
  <sodipodi:namedview
     id="base"
     pagecolor="#ffffff"
     bordercolor="#666666"
     borderopacity="1.0"
     inkscape:pageopacity="0.0"
     inkscape:pageshadow="2"
     inkscape:zoom="0.35"
     inkscape:cx="-149.70055"
     inkscape:cy="574.20786"
     inkscape:document-units="px"
     inkscape:current-layer="layer1"
     showgrid="false"
     inkscape:window-width="1024"
     inkscape:window-height="600"
     inkscape:window-x="0"
     inkscape:window-y="0"
     inkscape:window-maximized="0" />
  <metadata
     id="metadata7">
    <rdf:RDF>
      <cc:Work
         rdf:about="">
        <dc:format>image/svg+xml</dc:format>
        <dc:type
           rdf:resource="http://purl.org/dc/dcmitype/StillImage" />
        <dc:title></dc:title>
      </cc:Work>
    </rdf:RDF>
  </metadata>
  <g
     inkscape:label="Layer 1"
     inkscape:groupmode="layer"
     id="layer1"
     transform="translate(0,-284.36215)">
    <path
       sodipodi:nodetypes="sssssssssssssssssssss"
       inkscape:connector-curvature="0"
       id="path3774"
       d="m 234.38145,896.3552 492.15858,0 c 111.14182,0 123.52595,-29.3742 123.52595,-102.96104 l 0,-295.9118 c 0,-40.05087 4.36956,-33.64476 -40.36475,-33.64476 l -79.27062,0 c -49.19632,0 -60.63084,-1.83104 -60.63084,29.1775 l 0,168.92015 c 0,27.16714 9.51536,26.87638 -54.71512,26.87638 l -259.60885,0 c -24.87118,0 -23.8298,-6.44717 -23.8298,-16.41703 l 0,-34.05011 c 0,-7.49099 5.1906,-7.9045 8.99696,-7.9045 l 242.91822,0 c 51.40547,0 49.60491,-13.73391 49.60491,-35.67156 l 0,-77.01813 c 0,-24.30322 -0.34617,-47.83232 -59.33136,-47.83232 l -358.90619,0 c -76.68001,0 -79.75694,-0.81332 -79.75694,51.8859 l 0,334.01551 c 0,38.91551 -1.23133,40.53581 99.20985,40.53581 z"
       style="fill:none;stroke:#ff0000;stroke-width:5;stroke-linecap:butt;stroke-linejoin:miter;stroke-miterlimit:4;stroke-opacity:1;stroke-dasharray:none" />
  </g>
</svg>
